<?xml version="1.0" standalone="no"?>
<!DOCTYPE svg PUBLIC "-//W3C//DTD SVG 20010904//EN"
 "http://www.w3.org/TR/2001/REC-SVG-20010904/DTD/svg10.dtd">
<svg version="1.0" xmlns="http://www.w3.org/2000/svg"
 width="1302.000000pt" height="1180.000000pt" viewBox="0 0 1302.000000 1180.000000"
 preserveAspectRatio="xMidYMid meet">

<g transform="translate(0.000000,1180.000000) scale(0.100000,-0.100000)"
fill="#000000" stroke="none">
<path d="M6310 9839 c-161 -6 -312 -21 -480 -48 -118 -20 -235 -43 -255 -51
-11 -5 -36 -12 -55 -15 -19 -3 -46 -10 -60 -15 -14 -5 -59 -18 -100 -30 -41
-12 -84 -25 -95 -29 -11 -4 -45 -16 -75 -26 -56 -18 -131 -48 -162 -65 -10 -6
-23 -10 -29 -10 -6 0 -40 -13 -76 -30 -35 -16 -67 -30 -70 -30 -6 0 -193 -93
-278 -140 -116 -62 -232 -137 -409 -261 -235 -165 -570 -484 -777 -739 -95
-117 -223 -300 -317 -455 -64 -105 -193 -356 -218 -423 -10 -26 -20 -51 -24
-57 -4 -5 -17 -39 -30 -75 -13 -36 -30 -76 -37 -90 -7 -14 -13 -32 -13 -41 0
-8 -4 -19 -9 -25 -4 -5 -18 -43 -31 -84 -12 -41 -26 -84 -30 -95 -10 -24 -27
-90 -44 -165 -7 -30 -15 -62 -19 -70 -3 -8 -11 -44 -17 -80 -6 -36 -17 -103
-25 -150 -28 -162 -47 -336 -52 -492 l-5 -158 -374 0 -374 0 -67 69 c-91 91
-124 106 -238 105 -65 0 -98 -5 -120 -17 -16 -9 -34 -17 -38 -17 -5 0 -27 -18
-51 -40 -42 -39 -86 -113 -86 -143 0 -9 -5 -19 -10 -22 -16 -10 -11 -95 8
-150 35 -104 120 -197 192 -212 17 -3 33 -10 36 -14 15 -25 170 1 234 40 34
20 90 73 90 84 0 5 10 19 23 30 21 18 32 19 177 13 85 -3 255 -6 376 -6 l221
0 6 -57 c19 -182 83 -543 100 -559 4 -4 7 -15 7 -24 0 -19 37 -147 49 -170 5
-9 12 -31 16 -50 4 -19 11 -39 15 -45 4 -5 11 -25 15 -43 4 -18 13 -45 21 -60
8 -15 14 -33 14 -40 0 -7 4 -20 10 -30 5 -9 19 -39 30 -67 79 -185 165 -353
279 -539 102 -168 134 -215 193 -287 21 -26 38 -50 38 -54 0 -4 21 -32 48 -63
26 -31 50 -61 54 -67 15 -23 208 -235 273 -300 176 -176 501 -436 640 -511 19
-10 35 -22 35 -26 0 -5 5 -8 12 -8 6 0 19 -6 27 -14 9 -7 36 -24 61 -37 25
-13 47 -26 50 -29 6 -6 315 -159 385 -190 149 -67 464 -180 501 -180 8 0 22
-4 32 -10 18 -10 78 -24 172 -41 30 -6 62 -13 70 -17 50 -20 312 -57 515 -73
194 -15 679 -5 789 16 43 8 95 15 116 15 21 0 42 5 45 10 3 6 20 10 37 10 18
0 59 6 92 14 34 8 106 24 161 36 55 12 109 25 120 29 11 5 72 25 135 46 184
60 210 70 341 126 174 75 447 214 557 284 103 66 317 220 373 269 19 17 49 42
65 55 130 108 417 398 525 531 20 25 52 64 70 87 19 22 59 78 89 123 30 44 60
86 66 93 13 16 163 266 202 338 107 198 166 329 232 514 17 50 36 97 40 106 5
9 12 34 16 55 3 22 10 44 14 49 4 6 11 30 15 55 4 25 11 50 15 55 4 6 12 35
18 65 6 30 18 87 27 125 24 105 44 220 55 315 5 47 12 104 15 128 l6 42 344 0
344 0 48 -51 c130 -139 298 -156 434 -43 124 103 154 258 77 399 -24 43 -69
87 -133 130 -42 28 -202 29 -260 1 -48 -22 -99 -68 -131 -118 l-24 -38 -350 0
-350 0 0 53 c-1 115 -25 395 -44 522 -14 89 -30 168 -60 295 -8 36 -20 88 -26
115 -6 28 -15 58 -20 67 -6 10 -10 24 -10 31 0 14 -93 308 -109 342 -5 11 -19
45 -31 75 -40 99 -109 244 -170 359 -18 34 -145 247 -152 256 -5 6 -29 42 -55
80 -60 92 -231 319 -290 387 -91 105 -424 428 -504 490 -361 278 -700 477
-1034 605 -22 9 -54 22 -72 29 -17 8 -37 14 -45 14 -8 0 -18 4 -23 8 -6 5 -41
19 -80 31 -38 12 -79 26 -90 31 -25 12 -228 64 -310 80 -33 7 -94 19 -135 27
-230 45 -530 63 -850 52z m500 -275 c85 -7 196 -20 245 -28 50 -9 122 -20 160
-26 39 -6 77 -15 86 -20 9 -4 37 -11 63 -15 25 -4 49 -11 51 -16 3 -4 26 -11
50 -15 25 -3 48 -10 51 -15 3 -5 14 -9 26 -9 11 0 34 -6 51 -14 18 -7 55 -21
82 -31 142 -50 353 -144 498 -223 31 -18 83 -46 115 -63 31 -17 71 -42 89 -55
17 -13 34 -24 37 -24 6 0 172 -113 227 -155 15 -11 39 -29 55 -40 15 -11 42
-32 60 -47 17 -16 34 -28 37 -28 15 0 426 -401 487 -475 14 -16 46 -57 72 -90
26 -33 55 -69 64 -80 9 -11 37 -51 62 -88 147 -215 269 -432 342 -602 12 -27
25 -59 30 -70 21 -44 98 -254 114 -310 10 -33 21 -69 26 -80 8 -20 16 -48 46
-170 31 -124 46 -192 55 -260 6 -38 15 -80 21 -92 6 -12 12 -72 13 -135 1 -62
5 -169 8 -238 14 -267 16 -447 7 -490 -5 -25 -14 -85 -19 -135 -11 -97 -31
-205 -55 -300 -8 -33 -20 -82 -26 -110 -6 -27 -15 -57 -19 -65 -5 -9 -12 -31
-16 -50 -4 -19 -10 -39 -14 -45 -4 -5 -15 -36 -26 -68 -10 -31 -21 -57 -24
-57 -7 0 -31 49 -31 63 0 5 -6 23 -14 40 -7 18 -24 61 -36 97 -12 36 -26 74
-30 85 -5 11 -14 36 -20 55 -19 56 -65 186 -110 310 -23 63 -53 149 -66 190
-14 41 -29 82 -34 91 -5 9 -12 33 -15 53 -15 79 -23 65 -106 -189 -34 -104
-65 -199 -70 -210 -4 -11 -24 -74 -44 -140 -20 -66 -43 -134 -51 -152 -8 -17
-14 -36 -14 -41 0 -6 -19 -27 -42 -46 -36 -32 -48 -36 -95 -36 -48 0 -56 3
-90 38 -21 21 -60 83 -87 137 -27 55 -83 160 -123 233 -40 72 -73 135 -73 140
0 4 -8 17 -18 30 -18 23 -18 23 -36 -60 -37 -169 -104 -397 -141 -483 -8 -16
-23 -52 -35 -80 -42 -96 -112 -230 -151 -289 -21 -32 -39 -60 -39 -63 0 -2
-21 -32 -47 -66 -26 -34 -51 -66 -55 -72 -57 -78 -266 -286 -372 -370 -60 -47
-175 -125 -185 -125 -5 0 -11 -4 -13 -9 -3 -7 -65 -42 -198 -112 -127 -66
-416 -169 -474 -169 -12 0 -26 -4 -32 -9 -5 -5 -45 -14 -89 -21 -44 -6 -109
-15 -145 -20 -83 -12 -402 -12 -500 0 -117 14 -212 29 -250 39 -19 6 -62 18
-95 27 -351 97 -662 277 -954 549 -119 111 -303 342 -348 435 -4 7 -23 41 -43
75 -35 57 -86 160 -124 250 -9 22 -21 48 -26 57 -6 10 -10 23 -10 29 0 6 -6
25 -13 42 -12 29 -33 95 -53 167 -7 24 -7 24 -20 -12 -7 -20 -16 -63 -19 -95
-4 -32 -10 -62 -14 -68 -3 -5 -12 -41 -18 -80 -26 -143 -43 -232 -58 -305 -9
-41 -23 -111 -31 -155 -8 -44 -21 -116 -29 -160 -9 -44 -19 -100 -24 -125 -18
-97 -42 -217 -51 -250 -5 -19 -12 -57 -15 -85 -9 -72 -43 -196 -62 -225 -27
-41 -89 -80 -129 -80 -44 0 -134 55 -134 83 0 5 -7 23 -15 40 -8 18 -19 57
-24 87 -17 91 -39 201 -56 280 -41 182 -78 373 -114 590 -6 36 -15 81 -20 100
-6 19 -17 76 -26 125 -9 50 -20 110 -25 135 -5 25 -14 74 -20 110 -12 70 -32
182 -55 295 -7 39 -20 106 -27 151 -8 44 -17 85 -21 90 -3 5 -9 37 -12 69 -4
33 -11 67 -15 75 -5 9 -12 44 -16 78 -3 34 -11 65 -15 68 -5 3 -9 23 -9 45 0
101 -38 -13 -77 -229 -3 -18 -10 -35 -14 -38 -5 -3 -9 -12 -9 -20 0 -27 -40
-103 -59 -114 -11 -6 -89 -10 -179 -10 l-159 0 -7 53 c-3 28 -6 91 -6 140 l0
87 68 0 c37 0 72 4 77 8 20 14 56 115 71 197 3 22 10 45 14 50 4 6 11 35 15
65 4 30 11 60 15 65 4 6 11 33 15 60 4 28 10 55 15 60 4 6 11 36 14 67 4 32
11 60 16 63 5 3 12 30 15 60 4 30 11 55 15 55 4 0 10 22 14 48 8 64 36 120 77
156 26 23 43 30 79 30 27 1 53 -5 64 -14 36 -30 63 -60 64 -72 11 -78 15 -92
24 -73 6 14 7 6 4 -27 -2 -26 0 -50 4 -55 5 -4 11 -35 15 -68 3 -32 9 -63 12
-68 3 -4 7 -23 9 -40 4 -30 22 -122 44 -227 6 -25 15 -74 20 -110 6 -36 17
-96 24 -135 8 -38 22 -106 30 -150 9 -44 23 -123 32 -175 8 -52 22 -129 31
-170 23 -110 41 -204 58 -298 8 -45 22 -121 30 -170 9 -48 22 -125 29 -172 8
-47 16 -92 19 -100 3 -8 15 -71 27 -140 11 -69 25 -141 30 -160 5 -19 12 -53
16 -75 l7 -40 9 35 c5 19 15 73 23 120 7 47 16 92 19 100 3 8 10 42 16 75 5
33 16 96 24 140 8 44 20 114 26 155 6 41 15 89 20 105 5 17 12 55 15 85 4 30
9 62 13 70 3 8 11 47 18 85 24 131 40 210 46 225 4 8 11 44 17 80 14 86 34
183 42 195 4 6 10 35 14 65 4 30 11 60 15 65 4 6 11 30 14 55 4 25 11 54 16
65 9 22 26 85 41 155 5 25 14 52 19 62 5 9 12 39 16 67 4 28 10 51 15 51 5 0
9 10 9 23 -1 22 -1 22 -16 2 -16 -19 -16 -19 -12 7 3 15 1 25 -4 22 -5 -3 -8
-16 -6 -29 3 -22 -17 -55 -33 -55 -5 0 -9 7 -9 15 0 8 -4 15 -8 15 -5 0 -6 27
-4 59 4 59 4 59 -24 63 -23 2 -29 8 -29 28 0 20 -6 26 -30 30 -23 4 -31 11
-35 34 l-5 29 -85 1 c-85 1 -85 1 -88 28 -3 25 -8 28 -62 34 -54 6 -59 9 -62
33 -3 24 -6 26 -58 26 -122 1 -117 -1 -124 55 -6 47 -8 50 -36 50 -24 0 -30
-4 -30 -21 0 -20 -4 -21 -60 -14 l-60 7 -1 -34 c0 -30 -1 -31 -9 -10 -5 12
-23 37 -39 55 -22 22 -27 34 -18 39 8 5 5 8 -8 9 -15 1 -16 2 -4 6 16 4 34 68
23 85 -9 15 -64 9 -64 -7 0 -8 -8 -15 -17 -16 -15 0 -15 -2 2 -9 17 -7 16 -9
-10 -9 -27 -1 -31 2 -30 27 0 23 -4 27 -33 30 -29 3 -31 6 -26 28 5 21 2 26
-25 35 -32 11 -43 39 -16 39 8 0 15 -4 15 -10 0 -5 5 -10 11 -10 7 0 9 11 6
27 -3 17 3 44 14 67 23 48 19 57 -10 19 -11 -15 -25 -33 -31 -40 -5 -7 -7 -20
-4 -30 4 -13 3 -15 -4 -4 -7 10 -16 5 -38 -25 -16 -21 -35 -45 -42 -54 -60
-73 -72 -89 -72 -99 0 -6 -4 -11 -8 -11 -5 0 -24 -22 -43 -50 -19 -27 -38 -50
-42 -50 -9 0 0 53 13 80 4 8 18 49 30 90 51 172 107 324 177 480 39 86 143
281 194 365 11 17 22 37 26 45 4 8 11 20 15 25 21 25 128 176 128 180 0 3 7
13 15 23 15 16 101 125 117 147 4 6 49 57 100 115 91 102 141 151 284 281 72
65 90 79 179 150 28 21 56 44 63 50 7 5 40 29 75 53 34 23 93 64 130 89 38 26
72 47 77 47 4 0 10 4 12 8 3 9 122 82 132 82 4 0 23 10 44 23 62 39 208 111
327 162 71 30 79 34 135 55 30 12 64 26 75 31 50 21 236 79 254 79 11 0 22 4
25 9 3 5 27 12 52 16 26 4 54 11 63 16 9 4 48 13 86 18 39 6 111 17 160 25 91
16 213 29 405 45 118 10 270 6 500 -15z m-2552 -3314 c-2 -7 -10 1 -17 16 -12
27 -11 28 4 12 10 -9 16 -21 13 -28z"/>
<path d="M6270 7790 c-47 -5 -119 -16 -160 -25 -41 -8 -97 -20 -123 -25 -27
-5 -54 -13 -60 -18 -7 -5 -31 -14 -55 -21 -23 -6 -40 -16 -37 -21 7 -11 166
-118 205 -137 8 -4 20 -12 27 -17 6 -6 40 -30 75 -54 146 -99 214 -142 225
-142 6 0 13 -4 15 -8 3 -7 279 -192 503 -337 50 -32 109 -71 133 -86 24 -16
47 -29 52 -29 4 0 10 -3 12 -7 4 -9 65 -53 73 -53 3 0 11 -5 18 -10 23 -20
119 -80 128 -80 5 0 9 -4 9 -10 0 -5 5 -10 10 -10 10 0 61 -33 85 -55 7 -5 28
-19 48 -30 20 -11 37 -23 37 -27 0 -5 4 -8 9 -8 9 0 221 -137 248 -160 7 -5
14 -10 17 -10 9 0 161 -104 164 -112 2 -5 8 -8 14 -8 5 0 20 -8 33 -17 12 -10
33 -25 45 -33 96 -63 169 -162 220 -296 6 -15 11 -70 11 -124 0 -97 -7 -127
-53 -227 -18 -40 -130 -163 -147 -163 -7 0 -22 -11 -68 -50 -7 -5 -14 -10 -17
-10 -6 0 -114 -74 -209 -143 -39 -29 -137 -96 -217 -151 -80 -54 -183 -125
-230 -158 -47 -32 -121 -84 -165 -114 -44 -31 -125 -87 -180 -125 -55 -39
-113 -79 -130 -89 -36 -24 -56 -37 -104 -71 -20 -14 -101 -70 -181 -124 -80
-54 -181 -124 -225 -156 -86 -61 -142 -101 -328 -230 l-118 -82 43 -18 c51
-21 160 -46 260 -61 93 -14 576 -22 592 -10 6 5 51 13 101 16 49 4 94 11 100
15 5 5 28 12 50 15 49 9 129 33 172 52 17 8 38 14 46 14 9 0 18 4 21 9 3 5 18
12 33 16 46 11 202 93 293 153 89 59 231 172 290 232 94 94 234 270 292 367
75 124 158 295 158 325 0 8 4 18 8 24 5 5 18 43 31 84 13 41 27 86 32 100 4
14 11 43 14 65 4 22 10 49 15 60 9 21 24 115 40 245 11 95 11 273 0 370 -16
143 -32 245 -40 255 -4 6 -11 34 -15 62 -4 29 -11 55 -16 59 -5 3 -9 14 -9 25
0 21 -33 125 -56 176 -8 17 -14 34 -14 38 0 12 -53 119 -103 210 -140 250
-412 533 -653 678 -34 20 -66 37 -72 37 -6 0 -12 4 -14 8 -1 4 -34 24 -73 42
-38 19 -73 39 -76 43 -3 5 -9 8 -13 8 -8 -1 -34 8 -71 24 -16 7 -55 21 -85 30
-30 10 -63 22 -72 26 -9 5 -36 12 -60 15 -24 4 -45 10 -48 15 -5 7 -122 25
-225 35 -104 10 -403 12 -485 4z"/>
<path d="M5508 7456 c-38 -17 -77 -55 -99 -98 -18 -36 -19 -83 -19 -1561 0
-1201 3 -1530 13 -1548 46 -89 117 -134 197 -127 26 3 54 10 61 17 14 12 278
203 319 231 12 8 33 23 45 32 13 10 26 18 29 18 4 0 12 5 19 10 7 6 53 40 102
75 50 35 95 69 102 75 7 5 15 10 19 10 3 0 16 8 29 18 12 9 33 24 45 32 13 8
35 24 49 35 26 20 187 131 219 150 27 17 36 23 73 55 20 16 39 30 43 30 3 0
40 24 81 52 42 29 84 58 93 63 16 10 169 118 187 132 24 19 166 113 171 113 3
0 10 4 17 10 44 36 86 66 187 135 63 44 138 93 165 111 84 55 215 147 250 177
42 35 69 110 59 162 -12 68 -54 102 -424 340 -36 23 -123 80 -195 127 -71 46
-173 112 -225 146 -52 34 -102 66 -110 72 -20 13 -282 185 -345 225 -27 18
-111 71 -185 118 -74 47 -139 90 -145 94 -5 4 -84 57 -175 117 -232 153 -354
235 -434 290 -117 80 -154 91 -218 62z m432 -998 c33 -24 68 -48 78 -53 9 -6
44 -28 77 -51 112 -75 359 -240 450 -299 50 -32 142 -93 206 -134 64 -42 125
-81 135 -88 18 -11 18 -12 -1 -31 -11 -11 -137 -98 -280 -194 -363 -243 -420
-282 -423 -290 -2 -5 -8 -8 -13 -8 -9 0 -65 -36 -79 -50 -5 -5 -85 -61 -164
-114 -21 -14 -43 -26 -47 -26 -5 0 -9 311 -9 690 0 380 2 690 5 690 2 0 32
-19 65 -42z"/>
<path d="M3336 7335 c-9 -26 -7 -32 5 -12 6 10 9 21 6 23 -2 3 -7 -2 -11 -11z"/>
<path d="M3297 7280 c-9 -11 -13 -20 -9 -20 4 0 15 9 25 20 9 11 13 20 9 20
-4 0 -15 -9 -25 -20z"/>
<path d="M3243 7205 c-9 -24 1 -27 15 -5 8 13 8 20 2 20 -6 0 -13 -7 -17 -15z"/>
<path d="M5081 6965 c-6 -472 -12 -555 -36 -555 -8 0 -15 12 -17 28 -3 25 -6
27 -63 32 -56 5 -60 7 -60 30 0 21 -6 26 -33 28 -29 3 -32 1 -32 -22 0 -14 -3
-27 -7 -27 -5 -1 -27 -3 -50 -4 -24 -2 -51 -6 -60 -9 -17 -6 -17 -5 -1 7 17
13 17 16 1 57 -13 32 -14 45 -6 47 7 3 15 19 19 38 3 18 15 43 25 54 11 12 18
25 15 29 -3 5 15 49 39 97 25 49 45 91 45 93 0 13 -30 -31 -36 -52 -3 -14 -10
-26 -14 -26 -5 0 -11 -13 -15 -30 -4 -16 -10 -30 -15 -30 -5 0 -11 -13 -15
-30 -4 -16 -10 -30 -15 -30 -4 0 -11 -16 -14 -35 -4 -19 -11 -35 -16 -35 -6 0
-10 -8 -10 -17 -1 -10 -9 -36 -20 -58 -11 -22 -19 -46 -20 -53 0 -7 -4 -20 -9
-30 -15 -29 -41 -116 -41 -135 0 -10 -6 -39 -14 -65 -33 -111 -41 -197 -41
-462 1 -146 5 -274 10 -285 5 -11 14 -51 21 -90 16 -91 33 -165 44 -190 5 -11
12 -34 15 -52 12 -60 133 -350 155 -373 5 -5 28 -47 69 -125 9 -16 21 -35 26
-42 6 -7 24 -31 40 -53 17 -23 42 -54 58 -71 15 -16 27 -33 27 -37 0 -5 15
-22 33 -40 l32 -31 -3 897 c-1 493 -3 1124 -5 1402 -1 311 -4 409 -6 255z
m-390 -502 c-8 -15 -10 -15 -11 -2 0 17 10 32 18 25 2 -3 -1 -13 -7 -23z"/>
<path d="M5000 7110 c-6 -11 -9 -20 -8 -20 2 0 11 9 21 20 9 11 13 20 7 20 -5
0 -14 -9 -20 -20z"/>
<path d="M4966 7063 c-6 -14 -5 -15 5 -6 7 7 10 15 7 18 -3 3 -9 -2 -12 -12z"/>
<path d="M3213 7034 c-3 -8 -1 -20 6 -27 8 -8 11 -4 11 16 0 30 -7 35 -17 11z"/>
<path d="M3280 7033 c14 -7 13 -41 -2 -46 -8 -2 -7 -3 2 -3 18 2 20 48 2 52
-7 1 -8 0 -2 -3z"/>
<path d="M4883 6945 c-3 -9 -3 -18 -1 -21 3 -3 8 4 11 16 6 23 -1 27 -10 5z"/>
<path d="M3440 6850 c0 -16 7 -20 30 -20 23 0 30 4 30 20 0 16 -7 20 -30 20
-23 0 -30 -4 -30 -20z"/>
<path d="M4461 6784 c0 -11 3 -14 6 -6 3 7 2 16 -1 19 -3 4 -6 -2 -5 -13z"/>
<path d="M4436 6735 c-3 -9 -6 -22 -5 -28 0 -7 5 -1 10 12 5 13 8 26 5 28 -2
2 -6 -3 -10 -12z"/>
<path d="M4405 6660 c-4 -17 -5 -34 -2 -36 2 -3 7 10 11 27 8 42 0 50 -9 9z"/>
<path d="M4376 6584 c-4 -20 -5 -38 -3 -40 3 -3 8 11 11 32 4 20 5 38 3 40 -3
3 -8 -11 -11 -32z"/>
<path d="M4346 6515 c-3 -9 -6 -24 -6 -33 0 -8 -7 -23 -16 -33 -12 -13 -13
-22 -5 -36 9 -16 10 -15 11 10 0 15 4 27 9 27 5 0 12 16 16 36 7 38 2 56 -9
29z"/>
<path d="M9548 6403 c7 -3 16 -2 19 1 4 3 -2 6 -13 5 -11 0 -14 -3 -6 -6z"/>
<path d="M8741 6294 c0 -11 3 -14 6 -6 3 7 2 16 -1 19 -3 4 -6 -2 -5 -13z"/>
<path d="M9431 6284 c0 -11 3 -14 6 -6 3 7 2 16 -1 19 -3 4 -6 -2 -5 -13z"/>
<path d="M8771 6214 c0 -11 3 -14 6 -6 3 7 2 16 -1 19 -3 4 -6 -2 -5 -13z"/>
<path d="M9401 6184 c0 -11 3 -14 6 -6 3 7 2 16 -1 19 -3 4 -6 -2 -5 -13z"/>
<path d="M9371 6104 c0 -11 3 -14 6 -6 3 7 2 16 -1 19 -3 4 -6 -2 -5 -13z"/>
<path d="M9801 5984 c0 -11 3 -14 6 -6 3 7 2 16 -1 19 -3 4 -6 -2 -5 -13z"/>
<path d="M8881 5975 c1 -19 18 -51 18 -35 0 8 -4 22 -9 30 -5 8 -9 11 -9 5z"/>
<path d="M9821 5934 c0 -11 3 -14 6 -6 3 7 2 16 -1 19 -3 4 -6 -2 -5 -13z"/>
<path d="M8911 5915 c1 -19 18 -51 18 -35 0 8 -4 22 -9 30 -5 8 -9 11 -9 5z"/>
<path d="M9832 5890 c0 -14 2 -19 5 -12 2 6 2 18 0 25 -3 6 -5 1 -5 -13z"/>
<path d="M9292 5870 c0 -14 2 -19 5 -12 2 6 2 18 0 25 -3 6 -5 1 -5 -13z"/>
<path d="M8940 5849 c0 -5 5 -7 10 -4 6 3 10 8 10 11 0 2 -4 4 -10 4 -5 0 -10
-5 -10 -11z"/>
<path d="M9856 5826 c2 -16 4 -33 4 -38 0 -5 5 -6 10 -3 13 8 13 45 1 45 -5 0
-12 6 -14 13 -2 6 -3 -1 -1 -17z"/>
<path d="M10111 5834 c0 -11 3 -14 6 -6 3 7 2 16 -1 19 -3 4 -6 -2 -5 -13z"/>
<path d="M9272 5823 c-7 -12 -12 -29 -12 -37 0 -8 -8 -30 -18 -48 -10 -18 -17
-39 -15 -45 3 -7 0 -13 -5 -13 -5 0 -12 -18 -16 -40 -7 -43 -16 -49 -37 -24
-10 12 -10 20 -1 34 6 10 8 21 5 24 -12 12 -53 6 -53 -7 0 -8 -11 -24 -24 -36
-22 -21 -25 -21 -34 -5 -5 9 -7 25 -5 34 3 10 0 21 -6 24 -6 4 -11 18 -11 31
0 17 -6 25 -22 27 -16 2 -24 11 -26 29 -4 32 -42 73 -42 46 0 -10 4 -17 9 -17
5 0 12 -13 16 -30 4 -16 11 -30 16 -30 5 0 9 -9 9 -19 0 -11 6 -26 14 -33 7
-8 17 -29 21 -46 3 -18 10 -32 15 -32 4 0 11 -16 14 -35 4 -19 11 -35 15 -35
5 0 12 -16 15 -35 4 -19 11 -35 16 -35 4 0 11 -13 15 -30 7 -33 25 -41 25 -11
0 11 4 22 9 25 5 3 12 21 15 40 4 20 13 48 21 63 8 15 15 36 15 45 0 9 4 19 9
23 6 3 13 26 17 50 3 25 10 45 14 45 5 0 11 19 15 43 4 23 12 45 17 48 6 4 8
13 6 20 -3 10 -8 7 -16 -8z"/>
<path d="M10092 5793 c-7 -12 -12 -28 -12 -35 0 -21 -38 -91 -56 -105 -9 -6
-13 -16 -10 -21 8 -13 -13 -72 -25 -72 -5 0 -14 11 -19 25 -5 14 -15 25 -21
25 -7 0 -9 3 -6 7 4 3 2 12 -4 19 -6 8 -9 21 -5 29 3 9 -1 18 -9 21 -8 4 -15
14 -15 23 0 9 -4 21 -9 27 -5 5 -12 18 -15 29 -3 11 -3 0 0 -25 3 -24 9 -49
14 -55 4 -5 11 -27 15 -47 4 -21 11 -38 15 -38 5 0 11 -18 15 -41 5 -27 11
-39 20 -35 8 3 11 -2 8 -13 -2 -10 0 -33 5 -52 l9 -34 7 30 c4 17 11 38 16 47
5 9 13 36 16 60 4 24 10 48 14 53 5 6 11 27 15 48 4 20 11 37 15 37 5 0 12 15
15 33 4 17 12 37 17 44 5 7 8 18 6 25 -3 8 -9 5 -16 -9z"/>
</g>
</svg>
